<svg xmlns="http://www.w3.org/2000/svg" fill="none" viewBox="0 0 116 116" height="116" width="116">
<g clip-path="url(#clip0_2038_19)">
<path fill="#CCE7F8" d="M57.9996 0L63.6896 4.16338L70.1251 1.2677L74.8204 6.5164L81.7207 5.01422L85.2154 11.119L92.2789 11.0773L94.4218 17.7709L101.339 19.1904L102.036 26.181L108.506 29L107.725 35.9824L113.465 40.0773L111.242 46.7455L116 51.9377L112.431 58L116 64.0631L111.242 69.2552L113.465 75.9235L107.725 80.0184L108.506 87L102.036 89.819L101.339 96.8096L94.4218 98.2291L92.2789 104.923L85.2154 104.881L81.7207 110.986L74.8204 109.484L70.1251 114.733L63.6896 111.837L57.9996 116L52.3104 111.837L45.8749 114.733L41.1796 109.484L34.2793 110.986L30.7838 104.881L23.7203 104.923L21.5782 98.2291L14.6599 96.8096L13.9638 89.819L7.49387 87L8.27454 80.0184L2.53513 75.9235L4.75814 69.2552L0 64.0631L3.56879 58L0 51.9377L4.75814 46.7455L2.53513 40.0773L8.27454 35.9824L7.49387 29L13.9638 26.181L14.6599 19.1904L21.5782 17.7709L23.7203 11.0773L30.7838 11.119L34.2793 5.01422L41.1796 6.5164L45.8749 1.2677L52.3104 4.16338L57.9996 0Z"></path>
<path fill="#2A8FCF" d="M57.9996 110.174C86.9729 110.174 110.46 86.8147 110.46 58C110.46 29.1853 86.9729 5.82635 57.9996 5.82635C29.0263 5.82635 5.53882 29.1853 5.53882 58C5.53882 86.8147 29.0263 110.174 57.9996 110.174Z"></path>
<path fill="#CCE7F8" d="M57.9996 108.232C85.8944 108.232 108.508 85.7421 108.508 58C108.508 30.2579 85.8944 7.76846 57.9996 7.76846C30.1048 7.76846 7.49158 30.2579 7.49158 58C7.49158 85.7421 30.1048 108.232 57.9996 108.232Z"></path>
<path fill="#2A8FCF" d="M16.3709 50.8792L17.9787 55.7996H23.1807L18.9719 58.8404L20.5797 63.7616L16.3709 60.72L12.1622 63.7616L13.7699 58.8404L9.56116 55.7996H14.7632L16.3709 50.8792Z"></path>
<path fill="#2A8FCF" d="M99.6088 51.5588L101.217 56.4799H106.419L102.21 59.5208L103.818 64.4412L99.6088 61.4004L95.4001 64.4412L97.0078 59.5208L92.7991 56.4799H98.0011L99.6088 51.5588Z"></path>
<path fill="#2A8FCF" d="M57.9996 89.1848C75.3173 89.1848 89.356 75.2229 89.356 58C89.356 40.7771 75.3173 26.8152 57.9996 26.8152C40.6819 26.8152 26.6432 40.7771 26.6432 58C26.6432 75.2229 40.6819 89.1848 57.9996 89.1848Z"></path>
<path fill="#F7F7FD" d="M57.9996 87.2427C74.2387 87.2427 87.4032 74.1503 87.4032 58C87.4032 41.8497 74.2387 28.7573 57.9996 28.7573C41.7604 28.7573 28.5959 41.8497 28.5959 58C28.5959 74.1503 41.7604 87.2427 57.9996 87.2427Z"></path>
<path fill="#333333" d="M26.0055 39.0664L25.373 40.0423L18.5034 35.6377L21.6291 30.8163L22.4831 31.3634L19.9907 35.209L26.0055 39.0664ZM22.3215 36.8422L24.6051 33.319L25.4494 33.8601L23.1658 37.3833L22.3215 36.8422Z"></path>
<path fill="#333333" d="M28.84 34.6298L25.7361 26.2577L26.5594 25.4507L34.9425 28.6449L34.0697 29.501L26.4366 26.484L26.769 26.1579L29.6963 33.7902L28.84 34.6298ZM28.5279 32.0818L28.0968 31.2004L31.3722 27.9876L32.2689 28.4127L28.5279 32.0818Z"></path>
<path fill="#333333" d="M38.5988 26.5264C38.0682 26.8502 37.5105 27.0787 36.9267 27.2127C36.3429 27.3467 35.8317 27.3698 35.3946 27.2819L35.2868 26.2852C35.6947 26.3544 36.1513 26.3395 36.6558 26.2398C37.161 26.1408 37.6355 25.9554 38.0801 25.6845C38.4851 25.4373 38.7852 25.1909 38.9798 24.9446C39.1752 24.6982 39.2822 24.4577 39.3024 24.2232C39.3219 23.9888 39.2687 23.7692 39.143 23.5644C38.9963 23.327 38.8002 23.1833 38.5554 23.1327C38.3099 23.0828 38.0352 23.0888 37.7313 23.1513C37.4275 23.2138 37.1063 23.3032 36.7665 23.4193C36.4275 23.5354 36.0794 23.6411 35.7224 23.7364C35.3654 23.8317 35.0196 23.8853 34.6857 23.8987C34.3512 23.9121 34.0361 23.8481 33.7389 23.7066C33.4418 23.5659 33.179 23.3099 32.9515 22.9406C32.7314 22.5841 32.6237 22.1985 32.6274 21.7824C32.6311 21.367 32.7748 20.9479 33.0578 20.5258C33.3407 20.1038 33.7876 19.7063 34.3976 19.3341C34.8025 19.0869 35.2366 18.8949 35.6999 18.7579C36.1633 18.6209 36.6019 18.5621 37.0158 18.5822L37.176 19.5745C36.7553 19.5589 36.3511 19.6073 35.9649 19.7204C35.5779 19.8336 35.2291 19.9854 34.917 20.176C34.5256 20.4149 34.2344 20.6606 34.0428 20.9137C33.8519 21.1668 33.7486 21.4109 33.7344 21.6469C33.7202 21.8829 33.7763 22.1032 33.9021 22.3072C34.0525 22.5513 34.2509 22.6987 34.4964 22.7486C34.7419 22.7985 35.0158 22.791 35.3175 22.7248C35.6191 22.6585 35.941 22.5692 36.2823 22.4568C36.6236 22.3436 36.9716 22.2387 37.3264 22.1397C37.6812 22.0414 38.0255 21.9856 38.3601 21.9722C38.6946 21.9588 39.009 22.0213 39.3039 22.159C39.5988 22.2968 39.8585 22.5476 40.0823 22.9101C40.2979 23.26 40.4019 23.6434 40.3952 24.061C40.3877 24.4786 40.2395 24.9006 39.9499 25.3272C39.6602 25.7537 39.2104 26.1527 38.5996 26.5249L38.5988 26.5264Z"></path>
<path fill="#333333" d="M44.8405 23.3761L42.4199 16.6773L39.7829 17.6197L39.4394 16.6692L45.8015 14.395L46.1451 15.3456L43.5082 16.288L45.9288 22.9868L44.8412 23.3754L44.8405 23.3761Z"></path>
<path fill="#333333" d="M56.5483 21.1132C55.996 21.1266 55.5034 21.0484 55.0708 20.8809C54.6382 20.7127 54.2939 20.4737 54.0379 20.1618C53.7812 19.8507 53.6479 19.4859 53.6382 19.0676C53.6292 18.7036 53.7033 18.3693 53.8598 18.0634C54.0162 17.7575 54.2699 17.4597 54.621 17.1686C54.972 16.8776 55.4361 16.5746 56.0124 16.259C56.481 15.9999 56.8477 15.7744 57.112 15.5831C57.3762 15.391 57.5625 15.2109 57.6711 15.0412C57.7796 14.8722 57.832 14.6906 57.8275 14.497C57.8215 14.2342 57.7227 14.0214 57.5319 13.8591C57.341 13.6968 57.0708 13.6201 56.7205 13.6283C56.3545 13.6372 56.0708 13.7348 55.8687 13.9209C55.6666 14.1077 55.5693 14.3481 55.5761 14.6422C55.5798 14.7896 55.6082 14.9303 55.6621 15.0642C55.716 15.1982 55.8126 15.3471 55.9533 15.5101C56.0933 15.6739 56.2954 15.8794 56.5581 16.1287L60.9786 20.2996L60.3656 21.0573L55.6704 16.626C55.3912 16.3617 55.1719 16.125 55.0109 15.9158C54.85 15.7067 54.7325 15.5027 54.6577 15.3024C54.5828 15.103 54.5431 14.899 54.5379 14.6898C54.5297 14.3258 54.6127 14.005 54.7894 13.7258C54.966 13.4467 55.2175 13.2278 55.5446 13.0693C55.8717 12.9107 56.2572 12.8259 56.701 12.8154C57.1134 12.8058 57.4727 12.8653 57.7796 12.9933C58.0865 13.1214 58.326 13.3097 58.4996 13.5576C58.6726 13.8055 58.7639 14.107 58.7721 14.4628C58.7796 14.7724 58.71 15.0605 58.5648 15.327C58.4196 15.5935 58.1823 15.8548 57.8537 16.1101C57.5251 16.3654 57.0798 16.6431 56.5184 16.9431C56.0573 17.1939 55.6966 17.4255 55.4368 17.6361C55.1771 17.8475 54.993 18.0552 54.8852 18.2592C54.7774 18.4631 54.7258 18.685 54.7318 18.9247C54.7377 19.18 54.8193 19.4048 54.9758 19.5983C55.1322 19.7919 55.35 19.94 55.6284 20.042C55.9069 20.144 56.2295 20.1901 56.5955 20.1819C57.1164 20.1693 57.585 20.0465 57.9997 19.812C58.4143 19.5775 58.7586 19.2328 59.0318 18.7773C59.305 18.3217 59.4996 17.7597 59.6164 17.0912L60.5221 17.3607C60.3851 18.146 60.1343 18.8145 59.7698 19.3646C59.4053 19.9154 58.9502 20.3405 58.4046 20.6397C57.8589 20.939 57.2399 21.0968 56.5468 21.1132H56.5483Z"></path>
<path fill="#333333" d="M68.0287 22.334L66.9164 21.9811L69.3984 14.2365L74.8938 15.9784L74.5854 16.9409L70.2023 15.5511L68.0287 22.334ZM69.2255 18.216L73.2419 19.4889L72.9372 20.4402L68.9209 19.1673L69.2255 18.216Z"></path>
<path fill="#333333" d="M74.4604 24.6773L78.6505 17.6979L81.3877 19.3229C82.0022 19.6877 82.4692 20.0956 82.7881 20.5467C83.1069 20.9978 83.2731 21.4749 83.2881 21.9796C83.3023 22.4843 83.1579 22.989 82.8547 23.4945C82.5516 23.9999 82.1743 24.3639 81.723 24.5872C81.2717 24.8106 80.7709 24.8895 80.2208 24.8247C79.6706 24.7592 79.0883 24.5441 78.4731 24.1793L76.2875 22.8811L77.0143 22.6905L75.4641 25.2728L74.4619 24.6773H74.4604ZM76.9536 22.7895L76.7957 22.0332L78.9514 23.3136C79.5928 23.6947 80.1617 23.8458 80.6586 23.7662C81.1549 23.6873 81.5531 23.3977 81.8525 22.8997C82.1519 22.401 82.2177 21.9179 82.0508 21.4481C81.8832 20.9792 81.479 20.5541 80.8375 20.173L78.6819 18.8926L79.4326 18.6619L76.9536 22.7895ZM79.1519 27.4636L78.8877 23.8711L79.9603 24.5083L80.244 28.1127L79.1519 27.4636Z"></path>
<path fill="#333333" d="M83.589 29.7243L87.0028 33.0294L86.294 33.7529L82.0441 29.6379L87.7453 23.8131L91.8785 27.8142L91.1697 28.5377L87.8733 25.3465L83.589 29.7243ZM86.047 27.0631L89.0589 29.9789L88.3666 30.686L85.3547 27.7703L86.047 27.0631Z"></path>
<path fill="#333333" d="M89.3232 36.1529L91.9047 40.1346L91.0507 40.6817L87.8367 35.7233L94.7063 31.3188L97.832 36.1402L96.9779 36.6873L94.4847 32.8418L89.3224 36.1514L89.3232 36.1529ZM92.3179 34.108L94.5955 37.6215L93.7617 38.156L91.484 34.6425L92.3179 34.108Z"></path>
<path fill="#333333" d="M27.3348 91.0471C26.8692 90.6287 26.4882 90.1575 26.1926 89.6335C25.8969 89.1094 25.7292 88.6255 25.6896 88.1797L26.6282 87.7926C26.6768 88.2042 26.8205 88.6389 27.0608 89.0968C27.3003 89.5546 27.6154 89.958 28.0054 90.3086C28.3602 90.628 28.685 90.8461 28.9799 90.9637C29.2748 91.0813 29.5391 91.1163 29.7726 91.0686C30.0061 91.021 30.2045 90.9078 30.3676 90.7277C30.557 90.5193 30.6408 90.29 30.6199 90.0399C30.5989 89.7898 30.5143 89.527 30.3676 89.2531C30.2202 88.9784 30.042 88.6948 29.8332 88.4015C29.6236 88.1082 29.4223 87.803 29.2284 87.4874C29.0346 87.171 28.8841 86.8546 28.7763 86.5368C28.6686 86.2189 28.6409 85.8974 28.694 85.5713C28.7464 85.2453 28.9208 84.9207 29.215 84.5962C29.4986 84.2835 29.8437 84.0706 30.2486 83.956C30.6536 83.8421 31.1019 83.8607 31.5929 84.0126C32.0839 84.1644 32.5966 84.4815 33.1325 84.9631C33.4873 85.2825 33.7972 85.645 34.0622 86.0514C34.3271 86.4579 34.5083 86.8628 34.6071 87.267L33.6879 87.7025C33.5839 87.2931 33.4222 86.9187 33.2022 86.5792C32.9821 86.2398 32.7351 85.9465 32.4619 85.7008C32.1183 85.3919 31.7965 85.182 31.4971 85.0696C31.197 84.9572 30.9305 84.9282 30.697 84.981C30.4634 85.0339 30.2651 85.1507 30.1019 85.3301C29.9073 85.5445 29.8205 85.7768 29.8414 86.0269C29.8624 86.277 29.9477 86.5383 30.0974 86.8092C30.2471 87.0809 30.4253 87.3645 30.6318 87.6608C30.8384 87.9571 31.0398 88.2615 31.2366 88.5749C31.4327 88.8883 31.5854 89.2039 31.6932 89.5218C31.801 89.8397 31.8294 90.1597 31.7793 90.4828C31.7291 90.8059 31.5592 91.1267 31.2696 91.4446C30.9904 91.7512 30.6476 91.9604 30.2389 92.0721C29.8302 92.1837 29.3781 92.1607 28.8819 92.0036C28.3849 91.8465 27.8692 91.5264 27.334 91.0456L27.3348 91.0471Z"></path>
<path fill="#333333" d="M34.0397 96.0042L33.0068 95.4444L36.9491 88.2521L37.982 88.8119L34.0397 96.0042ZM40.0433 95.1005L35.6939 92.743L36.1834 91.849L40.5336 94.2065L40.0433 95.1005ZM42.1354 91.0629L43.1683 91.6227L39.226 98.815L38.1931 98.2552L42.1354 91.0629Z"></path>
<path fill="#333333" d="M43.4617 100.324L45.9923 92.5286L47.1121 92.8881L44.5814 100.683L43.4617 100.324Z"></path>
<path fill="#333333" d="M48.8553 101.873L49.975 93.7576L53.1576 94.1916C53.8724 94.2891 54.4675 94.4841 54.9413 94.7774C55.4158 95.0707 55.7593 95.4481 55.9727 95.9104C56.186 96.3726 56.2519 96.8974 56.171 97.4848C56.0902 98.0721 55.8843 98.5582 55.5543 98.9423C55.2242 99.3264 54.7908 99.5981 54.2541 99.7574C53.7175 99.9167 53.0917 99.9472 52.3769 99.8497L49.8351 99.5028L50.4346 99.0294L50.0207 102.032L48.8553 101.873ZM50.4196 99.1448L49.975 98.4934L52.4817 98.8351C53.228 98.9371 53.8148 98.8559 54.2437 98.5909C54.6718 98.3267 54.9263 97.9046 55.0064 97.3247C55.0865 96.7448 54.9555 96.2707 54.6149 95.9014C54.2743 95.5322 53.7302 95.2962 52.984 95.195L50.4773 94.8533L51.082 94.3449L50.4196 99.1448Z"></path>
<path fill="#333333" d="M59.4554 102.774L58.6448 94.6218L61.8416 94.3077C62.5594 94.237 63.1836 94.2891 63.7135 94.4648C64.2435 94.6404 64.6656 94.9278 64.9815 95.3283C65.2973 95.7287 65.4845 96.2238 65.5428 96.8133C65.6012 97.4036 65.5152 97.9232 65.2839 98.3736C65.0526 98.8239 64.6948 99.1879 64.2098 99.4671C63.7248 99.7462 63.1237 99.9204 62.4052 99.9911L59.8521 100.242L60.3244 99.6427L60.6238 102.659L59.4531 102.774L59.4554 102.774ZM60.3386 99.7581L59.754 99.2274L62.2719 98.9795C63.0212 98.9058 63.5736 98.6907 63.9284 98.3349C64.2831 97.9783 64.4313 97.5093 64.3737 96.9272C64.3161 96.3451 64.0781 95.9133 63.6596 95.6335C63.242 95.3528 62.6582 95.2501 61.9082 95.3231L59.3903 95.5702L59.8596 94.936L60.3386 99.7581Z"></path>
<path fill="#333333" d="M69.6401 101.191L67.4298 93.2998L68.563 92.9857L70.7733 100.877L69.6401 101.191Z"></path>
<path fill="#333333" d="M75.0704 99.5356L71.4162 92.1944L72.2807 91.7686L80.1646 95.3953L79.711 95.6186L76.7095 89.5883L77.7642 89.0694L81.4183 96.4114L80.5538 96.8371L72.67 93.2105L73.1235 92.9872L76.125 99.0175L75.0704 99.5356Z"></path>
<path fill="#333333" d="M88.3186 91.354C87.8388 91.7686 87.3299 92.0715 86.7902 92.2629C86.2513 92.4549 85.7086 92.5361 85.163 92.5055C84.6173 92.4758 84.0941 92.341 83.5941 92.1013C83.0942 91.8616 82.6436 91.5118 82.2424 91.0525C81.8412 90.5932 81.556 90.1004 81.3876 89.5741C81.2192 89.0478 81.1601 88.5134 81.2095 87.9692C81.2589 87.4251 81.4168 86.901 81.6833 86.3971C81.9497 85.8931 82.3255 85.4316 82.8112 85.0117C83.303 84.5874 83.8224 84.2778 84.3696 84.0842C84.9167 83.8899 85.4721 83.8297 86.0342 83.9019L85.9616 84.9254C85.4908 84.8979 85.0559 84.9559 84.6562 85.0996C84.2566 85.2432 83.8823 85.4658 83.5328 85.7673C83.1772 86.074 82.8988 86.4186 82.6967 86.7998C82.4946 87.1809 82.3749 87.5732 82.3382 87.9774C82.3015 88.3816 82.3494 88.7813 82.4826 89.1781C82.6159 89.5749 82.8314 89.9433 83.1301 90.285C83.4235 90.6207 83.7581 90.882 84.1338 91.0689C84.5095 91.2557 84.9025 91.3607 85.3127 91.3837C85.7228 91.4068 86.13 91.3473 86.535 91.2036C86.9399 91.0607 87.3201 90.8351 87.6757 90.5284C88.0072 90.2418 88.2804 89.9158 88.496 89.5488C88.7108 89.1826 88.8433 88.7657 88.8927 88.299L89.9855 88.5335C89.9039 89.059 89.7153 89.5652 89.4189 90.0535C89.1232 90.5418 88.7557 90.9751 88.3178 91.3532L88.3186 91.354ZM89.0334 89.1558L87.0275 86.8586L87.88 86.1216L89.9855 88.5335L89.0334 89.1558Z"></path>
<path fill="#2A8FCF" d="M78.9953 59.6167C78.9953 59.2916 79.3882 59.9582 72.9741 50.3817C72.5044 49.6744 72.9314 49.8695 65.3302 49.8695V45.8129C65.3302 45.3658 64.9459 45 64.4761 45H38.8541C38.3843 45 38 45.3658 38 45.8129V66.9495C38 67.3966 38.3843 67.7624 38.8541 67.7624H43.2098C44.1322 72.0792 50.6573 72.0792 51.5797 67.7624H67.1238C68.0462 72.0792 74.5712 72.0792 75.4936 67.7624H78.1413C78.611 67.7624 78.9953 67.3966 78.9953 66.9495C78.9953 61.6328 78.9953 59.5029 78.9953 59.6167ZM76.5868 58.8201H68.7465V54.7553H73.8709L76.5868 58.8201ZM39.7081 46.6259H63.6221V59.633H39.7081V46.6259ZM39.7081 61.2589H63.6221V66.1366H51.5797C50.6573 61.8198 44.1322 61.8198 43.2098 66.1366H39.7081V61.2589ZM47.3948 69.3883C45.9855 69.3883 44.8326 68.2909 44.8326 66.9495C44.8326 65.6081 45.9855 64.5107 47.3948 64.5107C48.804 64.5107 49.957 65.6081 49.957 66.9495C49.957 68.2909 48.804 69.3883 47.3948 69.3883ZM71.3087 69.3883C69.8995 69.3883 68.7465 68.2909 68.7465 66.9495C68.7465 65.6081 69.8995 64.5107 71.3087 64.5107C72.7179 64.5107 73.8709 65.6081 73.8709 66.9495C73.8709 68.2909 72.7179 69.3883 71.3087 69.3883ZM75.4936 66.1366C74.5712 61.8198 68.0462 61.8198 67.1238 66.1366H65.3302V51.5036H71.693L72.7777 53.1294H67.8924C67.4227 53.1294 67.0384 53.4953 67.0384 53.9424V59.633C67.0384 60.0801 67.4227 60.4459 67.8924 60.4459H77.2872V62.8848H76.4331C75.3057 62.8848 75.3057 64.5107 76.4331 64.5107H77.2872V66.1366H75.4936Z"></path>
</g>
<defs>
<clipPath id="clip0_2038_19">
<rect fill="white" height="116" width="116"></rect>
</clipPath>
</defs>
</svg>
