<svg xmlns="http://www.w3.org/2000/svg" fill="none" viewBox="0 0 116 116" height="116" width="116">
<g clip-path="url(#clip0_2038_41)">
<path fill="#CCE7F8" d="M57.9996 0L63.6896 4.16338L70.1251 1.2677L74.8204 6.5164L81.7207 5.01422L85.2154 11.119L92.2789 11.0773L94.4218 17.7709L101.339 19.1904L102.036 26.181L108.506 29L107.725 35.9824L113.465 40.0773L111.242 46.7455L116 51.9377L112.431 58L116 64.0631L111.242 69.2552L113.465 75.9235L107.725 80.0184L108.506 87L102.036 89.819L101.339 96.8096L94.4218 98.2291L92.2789 104.923L85.2154 104.881L81.7207 110.986L74.8204 109.484L70.1251 114.733L63.6896 111.837L57.9996 116L52.3104 111.837L45.8749 114.733L41.1796 109.484L34.2793 110.986L30.7838 104.881L23.7203 104.923L21.5782 98.2291L14.6599 96.8096L13.9638 89.819L7.49387 87L8.27454 80.0184L2.53513 75.9235L4.75814 69.2552L0 64.0631L3.56879 58L0 51.9377L4.75814 46.7455L2.53513 40.0773L8.27454 35.9824L7.49387 29L13.9638 26.181L14.6599 19.1904L21.5782 17.7709L23.7203 11.0773L30.7838 11.119L34.2793 5.01422L41.1796 6.5164L45.8749 1.2677L52.3104 4.16338L57.9996 0Z"></path>
<path fill="#2A8FCF" d="M57.9996 110.174C86.9729 110.174 110.46 86.8147 110.46 58C110.46 29.1853 86.9729 5.82635 57.9996 5.82635C29.0263 5.82635 5.53882 29.1853 5.53882 58C5.53882 86.8147 29.0263 110.174 57.9996 110.174Z"></path>
<path fill="#CCE7F8" d="M57.9996 108.232C85.8944 108.232 108.508 85.7421 108.508 58C108.508 30.2579 85.8944 7.76846 57.9996 7.76846C30.1048 7.76846 7.49158 30.2579 7.49158 58C7.49158 85.7421 30.1048 108.232 57.9996 108.232Z"></path>
<path fill="#2A8FCF" d="M16.3709 50.8792L17.9787 55.7996H23.1807L18.9719 58.8404L20.5797 63.7616L16.3709 60.72L12.1622 63.7616L13.7699 58.8404L9.56116 55.7996H14.7632L16.3709 50.8792Z"></path>
<path fill="#2A8FCF" d="M99.6088 51.5588L101.217 56.4799H106.419L102.21 59.5208L103.818 64.4412L99.6088 61.4004L95.4001 64.4412L97.0078 59.5208L92.7991 56.4799H98.0011L99.6088 51.5588Z"></path>
<path fill="#2A8FCF" d="M57.9996 89.1848C75.3173 89.1848 89.356 75.2229 89.356 58C89.356 40.7771 75.3173 26.8152 57.9996 26.8152C40.6819 26.8152 26.6432 40.7771 26.6432 58C26.6432 75.2229 40.6819 89.1848 57.9996 89.1848Z"></path>
<path fill="#F7F7FD" d="M57.9996 87.2427C74.2387 87.2427 87.4032 74.1503 87.4032 58C87.4032 41.8497 74.2387 28.7573 57.9996 28.7573C41.7604 28.7573 28.5959 41.8497 28.5959 58C28.5959 74.1503 41.7604 87.2427 57.9996 87.2427Z"></path>
<path fill="#333333" d="M30.8924 32.4823L25.4202 26.4445L27.7876 24.3222C28.3198 23.8458 28.849 23.522 29.3759 23.3516C29.9029 23.1818 30.4111 23.164 30.8998 23.2987C31.3886 23.4334 31.8317 23.72 32.2277 24.1562C32.6236 24.5932 32.8624 25.0592 32.944 25.5542C33.0256 26.0492 32.9552 26.5502 32.7336 27.0564C32.5113 27.5633 32.1349 28.0546 31.6027 28.531L29.712 30.226L29.7352 29.4705L31.7599 31.7044L30.8924 32.4823ZM29.813 29.5568L29.0316 29.4757L30.8961 27.8038C31.4515 27.3065 31.7651 26.8115 31.8377 26.3187C31.9103 25.8267 31.7509 25.3644 31.3602 24.9334C30.9695 24.5024 30.5241 24.2969 30.0241 24.3178C29.5241 24.3386 28.9964 24.5977 28.4418 25.0949L26.5773 26.7668V25.986L29.813 29.5568Z"></path>
<path fill="#333333" d="M37.7268 26.8189L33.8556 19.6594L36.6632 18.1579C37.2942 17.8207 37.8855 17.6317 38.4379 17.5907C38.9903 17.5505 39.488 17.6532 39.9311 17.8996C40.3742 18.1468 40.735 18.5286 41.0157 19.0467C41.2956 19.5648 41.4161 20.074 41.3772 20.5742C41.3383 21.0745 41.1497 21.5419 40.8106 21.9782C40.4715 22.4144 39.9872 22.8007 39.3563 23.1379L37.1145 24.3371L37.3226 23.6188L38.7552 26.2673L37.7268 26.8174V26.8189ZM37.378 23.7223L36.6445 23.4684L38.8555 22.2863C39.5135 21.9342 39.9364 21.5263 40.1227 21.0618C40.3091 20.5973 40.2642 20.1097 39.9872 19.5983C39.7111 19.0869 39.3271 18.7825 38.8368 18.6842C38.3466 18.586 37.7717 18.7133 37.1138 19.0654L34.9028 20.2482L35.0891 19.4897L37.3788 23.7238L37.378 23.7223ZM42.5396 24.2456L39.3046 22.6265L40.4049 22.0377L43.6608 23.6456L42.5396 24.2456Z"></path>
<path fill="#333333" d="M46.7678 21.6283L51.3755 20.4239L51.6337 21.4005L45.8973 22.9005L43.8188 15.0389L49.3972 13.5807L49.6555 14.5581L45.2065 15.7215L46.7678 21.6283ZM45.7431 18.1624L49.8082 17.0994L50.0604 18.0545L45.9954 19.1175L45.7431 18.1624Z"></path>
<path fill="#333333" d="M54.0469 20.9561L54.1232 12.8281L55.0805 12.837L58.689 19.014L58.1755 19.0095L61.8528 12.9003L62.8102 12.9092L62.745 21.038L61.6246 21.0276L61.6732 14.6526L61.9419 14.6548L58.6688 20.013L58.1314 20.0077L54.9361 14.5893L55.228 14.5923L55.1681 20.9673L54.0476 20.9568L54.0469 20.9561Z"></path>
<path fill="#333333" d="M65.7622 21.798L67.5923 13.8755L68.7307 14.1352L66.9007 22.0578L65.7622 21.798Z"></path>
<path fill="#333333" d="M73.0098 24.2389C72.0278 23.8056 71.3804 23.1856 71.0675 22.3786C70.7546 21.5717 70.8377 20.6301 71.3175 19.5544L73.2014 15.3292L74.2688 15.7997L72.4035 19.9824C72.0345 20.8102 71.9477 21.4965 72.1438 22.0399C72.3399 22.5841 72.7725 23.0032 73.4409 23.298C74.1168 23.5957 74.7231 23.6352 75.2605 23.4141C75.7972 23.1937 76.2508 22.6689 76.6198 21.8412L78.485 17.6585L79.5202 18.1148L77.6362 22.3399C77.1564 23.4156 76.5127 24.1101 75.7051 24.4227C74.8975 24.7354 73.9986 24.6736 73.0098 24.2374V24.2389Z"></path>
<path fill="#333333" d="M78.747 26.9834L84.0321 20.7834L84.7626 21.399L83.565 28.4424L83.1728 28.1119L89.9279 25.7545L90.6584 26.3701L85.3816 32.5783L84.5268 31.8577L88.663 26.9872L88.868 27.1599L82.9063 29.1973L82.4969 28.8519L83.5246 22.6541L83.7469 22.8416L79.6017 27.7048L78.747 26.9834Z"></path>
<path fill="#333333" d="M32.1267 94.7625L36.4425 87.7853L37.4447 88.3987L33.6649 94.5087L37.4634 96.8327L36.9268 97.6999L32.1267 94.7625Z"></path>
<path fill="#333333" d="M38.9634 98.7666L45.1916 92.2472L46.2919 92.6276L47.1212 101.587L45.9543 101.184L45.2979 92.9775L45.7425 93.1316L40.1086 99.1626L38.9634 98.7666ZM41.14 97.3515L41.7493 96.5714L46.1279 98.0855L46.1414 99.0815L41.14 97.3515Z"></path>
<path fill="#333333" d="M50.6211 102.212L51.3793 94.0546L55.0582 94.3926C56.0035 94.4797 56.7123 94.735 57.1846 95.1585C57.6569 95.5821 57.8635 96.1203 57.8029 96.7724C57.7617 97.2153 57.6277 97.5786 57.4002 97.8637C57.1726 98.148 56.8837 98.3564 56.5327 98.4889C56.1816 98.6214 55.8104 98.6691 55.4204 98.6334L55.6637 98.3028C56.1322 98.346 56.5387 98.4659 56.883 98.6616C57.2273 98.8574 57.49 99.1232 57.6719 99.4574C57.8538 99.7916 57.9226 100.191 57.8792 100.657C57.8141 101.356 57.5005 101.874 56.9369 102.21C56.374 102.547 55.5731 102.666 54.5342 102.571L50.6211 102.212ZM51.8801 101.376L54.5746 101.624C55.2228 101.683 55.7288 101.62 56.0933 101.434C56.4571 101.248 56.6607 100.922 56.7041 100.456C56.7482 99.9829 56.6083 99.6212 56.2849 99.3718C55.9616 99.1232 55.4751 98.9683 54.8269 98.9088L52.0268 98.6512L52.1143 97.7073L54.6218 97.9381C55.2153 97.9924 55.6861 97.9262 56.0349 97.7386C56.383 97.551 56.5776 97.2398 56.618 96.8051C56.6584 96.3704 56.5244 96.0287 56.2168 95.7808C55.9092 95.533 55.4578 95.3818 54.8643 95.3275L52.4624 95.1064L51.8801 101.376Z"></path>
<path fill="#333333" d="M62.793 101.446L67.5452 100.767L67.6911 101.775L61.7743 102.621L60.6022 94.5124L66.3558 93.6898L66.5018 94.6978L61.9128 95.3543L62.7938 101.447L62.793 101.446ZM62.1673 97.8592L66.3603 97.2592L66.5025 98.244L62.3095 98.844L62.1673 97.8592Z"></path>
<path fill="#333333" d="M71.5885 100.686L68.7488 92.9961L69.8535 92.5926L72.3408 99.3264L76.527 97.7974L76.8803 98.7532L71.5885 100.686Z"></path>
<path fill="#333333" d="M81.9573 96.0377C81.4229 96.3645 80.8615 96.596 80.2725 96.7314C79.6842 96.8669 79.1692 96.8907 78.7283 96.8036L78.6183 95.7995C79.0292 95.8687 79.4896 95.853 79.9985 95.7526C80.5075 95.6521 80.9858 95.4645 81.4334 95.1913C81.8406 94.9419 82.1429 94.6933 82.3398 94.4447C82.5359 94.1968 82.6444 93.9541 82.6639 93.7174C82.6834 93.4814 82.6295 93.2596 82.5022 93.0541C82.354 92.8152 82.1564 92.67 81.9094 92.6202C81.6617 92.5703 81.3855 92.577 81.0793 92.6403C80.7732 92.7035 80.4491 92.7944 80.1078 92.912C79.7658 93.0296 79.4155 93.136 79.0562 93.232C78.6969 93.3281 78.3481 93.3832 78.0113 93.3973C77.6745 93.4107 77.3564 93.3467 77.057 93.2053C76.7576 93.0631 76.4926 92.8063 76.2621 92.4341C76.0405 92.0753 75.9312 91.6867 75.9342 91.2676C75.938 90.8492 76.0817 90.4264 76.3661 90.0007C76.6505 89.5749 77.1004 89.1736 77.7149 88.7977C78.1221 88.5483 78.5599 88.354 79.0262 88.2156C79.4933 88.0771 79.9349 88.0168 80.3526 88.0369L80.515 89.0367C80.0906 89.021 79.6842 89.0709 79.295 89.1855C78.905 89.3002 78.5532 89.4535 78.2396 89.6456C77.8451 89.8868 77.5517 90.1346 77.3601 90.39C77.1678 90.6453 77.0645 90.8917 77.0502 91.1291C77.036 91.3666 77.0929 91.5884 77.2201 91.7946C77.3721 92.0403 77.5719 92.1884 77.8189 92.239C78.0659 92.2889 78.3421 92.2807 78.646 92.2137C78.9499 92.1467 79.274 92.0567 79.6175 91.942C79.9611 91.8281 80.3121 91.7209 80.6692 91.6212C81.0262 91.5214 81.3735 91.4649 81.7111 91.4515C82.0479 91.4381 82.3653 91.5006 82.6624 91.6391C82.9603 91.7783 83.2215 92.0299 83.4476 92.3954C83.6654 92.7474 83.7709 93.1345 83.7642 93.5551C83.7574 93.9764 83.6085 94.4015 83.3173 94.8317C83.0262 95.262 82.5726 95.6647 81.9581 96.0406L81.9573 96.0377Z"></path>
<path fill="#2A8FCF" d="M74.536 40.2633L66.6228 48.1748L62.9686 44.5214C62.6364 44.1892 62.0998 44.1892 61.7676 44.5214C60.1066 46.182 56.9635 46.182 55.3025 44.5214C54.9107 44.1296 54.374 44.2403 54.0929 44.5214L35.2428 63.8786C34.9191 64.2107 34.9191 64.7473 35.2428 65.0709C52.2275 82.0521 50.9924 80.9791 51.5035 80.9791C52.0146 80.9791 50.7539 82.0436 71.4525 61.9029C71.7932 61.5707 71.7932 61.0257 71.4525 60.6936C69.7915 59.0329 69.7915 55.8905 71.4525 54.2298C71.7847 53.8977 71.7847 53.3612 71.4525 53.029L67.7983 49.3756L75.737 41.4641C76.5377 40.6636 75.3281 39.4628 74.536 40.2633ZM69.7148 53.6848C68.139 55.8479 68.1305 59.084 69.7148 61.2471L51.529 78.9352L37.0486 64.4662L54.7488 46.2842C56.9124 47.8597 60.1492 47.8597 62.3127 46.2842L65.4133 49.3841L64.0845 50.7126C61.8017 49.3671 58.9567 51.0107 58.9567 53.6422C58.9567 55.5243 60.4814 57.0486 62.3638 57.0486C64.9703 57.0486 66.6484 54.2213 65.294 51.9219L66.6228 50.5934L69.7233 53.6933L69.7148 53.6848ZM63.5649 54.843C62.5342 55.8734 60.6603 55.1836 60.6603 53.6422C60.6603 52.5606 61.6739 51.709 62.7983 51.9986L61.7591 53.0375C61.2224 53.5741 61.6143 54.4938 62.3638 54.4938C62.8153 54.4938 62.909 54.2979 64.0078 53.2079C64.3145 54.3746 63.4627 54.8515 63.5734 54.8515L63.5649 54.843Z"></path>
<path fill="#2A8FCF" d="M53.3263 51.8282C52.9941 51.4961 52.4575 51.4961 52.1253 51.8282L40.0809 63.8701C39.7487 64.2022 39.7487 64.7387 40.0809 65.0708C51.8357 76.8231 51.018 76.1589 51.529 76.1589C52.0401 76.1589 51.0691 76.9679 64.1782 63.8615C64.5104 63.5294 64.5104 62.9929 64.1782 62.6608L53.3348 51.8197L53.3263 51.8282ZM51.512 74.115L41.8782 64.4832L52.7216 53.6421L62.3553 63.2739L51.512 74.115Z"></path>
<path fill="#2A8FCF" d="M50.311 59.6546L53.3263 62.6693C54.1185 63.4613 55.328 62.2605 54.5273 61.4685L51.512 58.4538C50.7198 57.6618 49.5103 58.8626 50.311 59.6546Z"></path>
<path fill="#2A8FCF" d="M56.3332 65.684C57.1338 66.4845 58.3349 65.2753 57.5342 64.4832L56.3332 63.2825C55.5325 62.482 54.3314 63.6912 55.1321 64.4832L56.3332 65.684Z"></path>
<path fill="#2A8FCF" d="M48.5052 61.4685C47.7045 60.668 46.5035 61.8773 47.3042 62.6693C50.6176 65.9821 50.4473 65.931 50.9158 65.931C51.6653 65.931 52.0572 65.0198 51.5205 64.4747L48.5052 61.46V61.4685Z"></path>
<path fill="#2A8FCF" d="M53.3263 66.2802C52.5342 65.4882 51.3246 66.6889 52.1253 67.4809C53.4115 68.7669 53.4796 68.9372 53.9311 68.9372C54.6807 68.9372 55.0725 68.0175 54.5359 67.4809L53.3348 66.2717L53.3263 66.2802Z"></path>
</g>
<defs>
<clipPath id="clip0_2038_41">
<rect fill="white" height="116" width="116"></rect>
</clipPath>
</defs>
</svg>
