<svg xmlns="http://www.w3.org/2000/svg" fill="none" viewBox="0 0 116 116" height="116" width="116">
<g clip-path="url(#clip0_2052_2)">
<path fill="#CCE7F8" d="M58 0L63.69 4.16L70.13 1.26L74.83 6.51L81.73 5.01L85.22 11.11L92.28 11.07L94.42 17.76L101.34 19.18L102.04 26.17L108.51 28.99L107.73 35.97L113.47 40.06L111.25 46.73L116.01 51.92L112.44 57.98L116.01 64.04L111.25 69.23L113.47 75.9L107.73 79.99L108.51 86.97L102.04 89.79L101.34 96.78L94.42 98.2L92.28 104.89L85.22 104.85L81.73 110.96L74.83 109.46L70.13 114.71L63.69 111.81L58 115.97L52.31 111.81L45.87 114.71L41.17 109.46L34.27 110.96L30.77 104.85L23.71 104.89L21.57 98.2L14.65 96.78L13.95 89.79L7.47998 86.97L8.25998 79.99L2.51998 75.9L4.73998 69.23L-0.0200195 64.04L3.54998 57.98L-0.0200195 51.92L4.73998 46.73L2.51998 40.06L8.25998 35.97L7.47998 28.99L13.95 26.17L14.65 19.18L21.57 17.76L23.71 11.07L30.77 11.11L34.27 5.01L41.17 6.51L45.87 1.26L52.31 4.16L58 0Z"></path>
<path fill="#2A8FCF" d="M58 110.17C86.97 110.17 110.46 86.81 110.46 58C110.46 29.19 86.97 5.82999 58 5.82999C29.03 5.82999 5.54004 29.19 5.54004 58C5.54004 86.81 29.03 110.17 58 110.17Z"></path>
<path fill="#CCE7F8" d="M58 108.23C85.89 108.23 108.51 85.74 108.51 58C108.51 30.26 85.89 7.76999 58 7.76999C30.11 7.76999 7.48999 30.26 7.48999 58C7.48999 85.74 30.1 108.23 58 108.23Z"></path>
<path fill="#2A8FCF" d="M16.3701 50.88L17.9801 55.8H23.1801L18.9701 58.84L20.5801 63.76L16.3701 60.72L12.1601 63.76L13.7701 58.84L9.56006 55.8H14.7601L16.3701 50.88Z"></path>
<path fill="#2A8FCF" d="M99.61 51.56L101.22 56.48H106.42L102.21 59.52L103.82 64.44L99.61 61.4L95.4 64.44L97.01 59.52L92.8 56.48H98L99.61 51.56Z"></path>
<path fill="#2A8FCF" d="M58 89.18C75.32 89.18 89.36 75.22 89.36 58C89.36 40.78 75.32 26.82 58 26.82C40.68 26.82 26.64 40.78 26.64 58C26.64 75.22 40.68 89.18 58 89.18Z"></path>
<path fill="#F7F7FD" d="M58 87.24C74.24 87.24 87.4 74.15 87.4 58C87.4 41.85 74.24 28.76 58 28.76C41.76 28.76 28.6 41.85 28.6 58C28.6 74.15 41.76 87.24 58 87.24Z"></path>
<path fill="#333333" d="M23.71 87.46L29.43 81.57L31.93 83.97C32.56 84.58 33 85.24 33.24 85.95C33.48 86.66 33.52 87.37 33.36 88.07C33.2 88.77 32.83 89.41 32.27 90C31.7 90.58 31.07 90.97 30.37 91.15C29.67 91.34 28.96 91.32 28.24 91.1C27.52 90.88 26.84 90.47 26.21 89.86L23.71 87.46ZM25.26 87.55L26.86 89.09C27.35 89.56 27.87 89.88 28.4 90.04C28.94 90.2 29.47 90.21 29.99 90.06C30.51 89.92 30.99 89.63 31.41 89.19C31.84 88.75 32.12 88.26 32.24 87.74C32.36 87.22 32.34 86.69 32.16 86.16C31.98 85.63 31.65 85.13 31.16 84.66L29.56 83.12L25.26 87.55Z"></path>
<path fill="#333333" d="M31.6801 94.39L36.3401 87.63L37.3101 88.29L32.6501 95.05L31.6801 94.39Z"></path>
<path fill="#333333" d="M37.44 97.92C36.88 97.64 36.39 97.29 35.96 96.86C35.53 96.43 35.24 96.01 35.09 95.59L35.89 94.97C36.05 95.35 36.3 95.73 36.66 96.11C37.01 96.49 37.43 96.79 37.9 97.03C38.33 97.24 38.7 97.37 39.02 97.4C39.34 97.44 39.6 97.4 39.81 97.29C40.02 97.18 40.18 97.02 40.29 96.8C40.42 96.55 40.44 96.31 40.35 96.07C40.26 95.83 40.11 95.6 39.9 95.38C39.68 95.15 39.44 94.93 39.16 94.7C38.88 94.47 38.6 94.23 38.33 93.98C38.06 93.73 37.83 93.46 37.64 93.18C37.45 92.9 37.34 92.6 37.3 92.27C37.26 91.94 37.34 91.58 37.54 91.19C37.73 90.81 38 90.52 38.36 90.3C38.72 90.08 39.16 89.98 39.67 90C40.18 90.02 40.76 90.19 41.41 90.51C41.84 90.72 42.23 90.99 42.6 91.31C42.96 91.63 43.25 91.97 43.45 92.34L42.68 93C42.47 92.63 42.21 92.32 41.91 92.05C41.61 91.78 41.29 91.56 40.96 91.4C40.55 91.19 40.18 91.08 39.86 91.05C39.54 91.02 39.28 91.06 39.07 91.18C38.86 91.29 38.7 91.46 38.59 91.67C38.46 91.93 38.44 92.17 38.53 92.41C38.62 92.65 38.77 92.87 38.99 93.1C39.21 93.32 39.45 93.55 39.73 93.78C40.01 94.01 40.28 94.25 40.56 94.5C40.83 94.75 41.06 95.01 41.25 95.29C41.44 95.57 41.55 95.87 41.59 96.19C41.63 96.51 41.55 96.87 41.36 97.25C41.17 97.62 40.9 97.91 40.54 98.13C40.18 98.35 39.73 98.44 39.21 98.42C38.69 98.4 38.11 98.23 37.46 97.91L37.44 97.92Z"></path>
<path fill="#333333" d="M46.42 101.3C45.82 101.13 45.29 100.88 44.83 100.54C44.38 100.2 44.01 99.79 43.74 99.33C43.47 98.86 43.29 98.35 43.22 97.81C43.15 97.26 43.19 96.7 43.35 96.11C43.51 95.52 43.77 95.02 44.12 94.59C44.47 94.16 44.88 93.82 45.36 93.56C45.84 93.3 46.36 93.14 46.93 93.08C47.5 93.02 48.08 93.08 48.69 93.24C49.3 93.41 49.84 93.67 50.3 94.02C50.76 94.37 51.11 94.8 51.36 95.3L50.42 95.81C50.21 95.41 49.93 95.08 49.6 94.82C49.27 94.56 48.88 94.37 48.45 94.25C48 94.13 47.57 94.09 47.15 94.13C46.73 94.17 46.34 94.29 45.98 94.49C45.62 94.68 45.32 94.94 45.06 95.27C44.8 95.6 44.61 95.98 44.49 96.42C44.37 96.86 44.33 97.28 44.38 97.7C44.43 98.11 44.56 98.5 44.76 98.84C44.96 99.19 45.24 99.49 45.58 99.75C45.92 100.01 46.31 100.2 46.76 100.32C47.19 100.44 47.62 100.47 48.04 100.42C48.46 100.37 48.87 100.23 49.26 99.99L49.8 100.9C49.32 101.21 48.8 101.39 48.22 101.46C47.64 101.53 47.04 101.47 46.43 101.3H46.42Z"></path>
<path fill="#333333" d="M55.8501 102.74C55.2201 102.71 54.6501 102.58 54.1201 102.34C53.5901 102.1 53.1401 101.79 52.7701 101.39C52.4001 100.99 52.1101 100.54 51.9201 100.02C51.7201 99.5 51.6401 98.94 51.6701 98.34C51.7001 97.74 51.8301 97.19 52.0801 96.7C52.3201 96.2 52.6501 95.78 53.0601 95.42C53.4701 95.06 53.9501 94.79 54.4901 94.6C55.0301 94.41 55.6201 94.34 56.2601 94.37C56.8901 94.4 57.4601 94.53 57.9801 94.76C58.5001 94.99 58.9501 95.31 59.3301 95.7C59.7101 96.1 59.9901 96.55 60.1801 97.07C60.3701 97.59 60.4501 98.15 60.4201 98.76C60.3901 99.37 60.2601 99.92 60.0201 100.42C59.7801 100.92 59.4501 101.34 59.0401 101.7C58.6301 102.06 58.1501 102.33 57.6101 102.51C57.0701 102.69 56.4901 102.77 55.8601 102.74H55.8501ZM55.9001 101.7C56.3501 101.72 56.7801 101.66 57.1701 101.53C57.5701 101.39 57.9101 101.19 58.2101 100.92C58.5101 100.65 58.7501 100.33 58.9301 99.95C59.1101 99.58 59.2101 99.16 59.2301 98.71C59.2501 98.26 59.1901 97.84 59.0501 97.45C58.9101 97.06 58.7001 96.72 58.4301 96.42C58.1601 96.12 57.8301 95.89 57.4501 95.71C57.0701 95.54 56.6501 95.44 56.2001 95.42C55.7401 95.4 55.3101 95.46 54.9101 95.59C54.5101 95.73 54.1701 95.93 53.8601 96.2C53.5601 96.47 53.3201 96.79 53.1401 97.17C52.9601 97.54 52.8601 97.96 52.8401 98.41C52.8201 98.86 52.8801 99.28 53.0201 99.67C53.1601 100.06 53.3701 100.4 53.6501 100.7C53.9301 101 54.2501 101.24 54.6401 101.41C55.0201 101.58 55.4401 101.68 55.9001 101.7Z"></path>
<path fill="#333333" d="M66.64 101.97C65.58 102.17 64.68 102.03 63.96 101.54C63.23 101.05 62.76 100.23 62.53 99.06L61.64 94.49L62.79 94.27L63.67 98.8C63.84 99.7 64.17 100.31 64.65 100.65C65.13 100.99 65.73 101.09 66.45 100.95C67.18 100.81 67.71 100.49 68.02 100C68.34 99.51 68.41 98.82 68.23 97.92L67.35 93.39L68.47 93.17L69.36 97.74C69.59 98.9 69.46 99.85 68.97 100.57C68.48 101.29 67.7 101.76 66.63 101.96L66.64 101.97Z"></path>
<path fill="#333333" d="M73.52 100.12L70.13 92.65L71.01 92.26L78.76 96.17L78.3 96.38L75.52 90.25L76.59 89.77L79.98 97.24L79.1 97.63L71.35 93.72L71.81 93.51L74.59 99.64L73.52 100.12Z"></path>
<path fill="#333333" d="M84.3099 94.39L80.0799 88.58L77.7899 90.23L77.1899 89.41L82.7099 85.44L83.3099 86.26L81.0199 87.91L85.2499 93.72L84.3099 94.4V94.39Z"></path>
<path fill="#333333" d="M90.81 88.99C90.37 89.44 89.89 89.8 89.35 90.08C88.81 90.36 88.32 90.51 87.87 90.53L87.51 89.58C87.93 89.55 88.37 89.42 88.84 89.2C89.31 88.98 89.73 88.68 90.09 88.3C90.42 87.96 90.65 87.64 90.78 87.35C90.91 87.06 90.95 86.8 90.91 86.57C90.87 86.34 90.76 86.14 90.59 85.97C90.39 85.77 90.16 85.68 89.91 85.69C89.66 85.7 89.39 85.78 89.11 85.91C88.83 86.05 88.54 86.21 88.24 86.41C87.94 86.61 87.62 86.8 87.3 86.98C86.98 87.16 86.65 87.3 86.33 87.4C86.01 87.5 85.68 87.51 85.36 87.45C85.03 87.39 84.71 87.2 84.4 86.9C84.1 86.61 83.89 86.26 83.79 85.85C83.69 85.44 83.72 85 83.89 84.52C84.06 84.04 84.4 83.54 84.9 83.02C85.23 82.68 85.61 82.38 86.03 82.13C86.45 81.88 86.86 81.72 87.27 81.63L87.68 82.56C87.27 82.65 86.88 82.8 86.53 83C86.18 83.21 85.88 83.44 85.62 83.7C85.3 84.03 85.08 84.34 84.95 84.64C84.83 84.93 84.79 85.2 84.83 85.43C84.87 85.66 84.98 85.86 85.16 86.03C85.37 86.23 85.6 86.33 85.85 86.31C86.1 86.3 86.37 86.22 86.65 86.08C86.93 85.94 87.22 85.77 87.52 85.58C87.82 85.39 88.14 85.2 88.46 85.01C88.78 84.83 89.1 84.69 89.43 84.59C89.75 84.49 90.08 84.48 90.4 84.54C90.72 84.6 91.04 84.78 91.35 85.08C91.65 85.37 91.85 85.72 91.94 86.13C92.04 86.54 92 86.99 91.82 87.48C91.64 87.97 91.31 88.47 90.8 88.98L90.81 88.99Z"></path>
<path fill="#2A8FCF" d="M75.58 58.1C74.34 57.28 72.63 57.48 71.53 58.58L66 63.83C65.53 62.58 64.35 61.76 63.02 61.76C54.23 61.76 51.83 61.37 48.49 63.13V61.76C48.49 61.32 48.13 60.97 47.7 60.97H39.78C39.34 60.97 38.99 61.33 38.99 61.76V75.22C38.99 75.66 39.35 76.01 39.78 76.01H47.7C48.14 76.01 48.49 75.65 48.49 75.22V74.43H61.69C63.59 74.43 65.38 73.69 66.72 72.35L76.06 63C77.48 61.58 77.24 59.25 75.56 58.12L75.58 58.1ZM46.92 74.42H40.59V62.54H46.92V74.42ZM74.96 61.87L65.61 71.21C64.57 72.25 63.18 72.83 61.7 72.83H48.5V64.93C49.93 64 51.98 63.33 54.12 63.33C63.97 63.33 63.51 63.17 64.15 63.8C65.14 64.79 64.42 66.5 63.03 66.5H56.1C55.05 66.5 55.05 68.08 56.1 68.08H63.03C64.39 68.08 65.55 67.23 66 66.01L72.63 59.71C74.24 58.09 76.39 60.39 74.96 61.86V61.87Z"></path>
<path fill="#2A8FCF" d="M45.6901 52.12C58.5701 60.71 57.6601 60.17 58.0001 60.17C58.3401 60.17 57.4701 60.68 70.3101 52.12C70.9601 51.7 70.6701 50.67 69.8701 50.67H66.7001V38.79C66.7001 38.35 66.3401 38 65.9101 38H50.0801C49.6401 38 49.2901 38.36 49.2901 38.79V50.67H46.1201C45.3301 50.67 45.0401 51.7 45.6801 52.12H45.6901ZM50.0801 52.25C50.5201 52.25 50.8701 51.89 50.8701 51.46V39.58H65.1201V51.46C65.1201 51.9 65.4801 52.25 65.9101 52.25H67.2601L58.0001 58.42L48.7401 52.25H50.0901H50.0801Z"></path>
<path fill="#2A8FCF" d="M60.51 41.52L54.18 51.02C53.82 51.55 54.21 52.25 54.84 52.25C55.47 52.25 54.98 52.67 61.83 42.39C62.41 41.52 61.09 40.64 60.52 41.51L60.51 41.52Z"></path>
<path fill="#2A8FCF" d="M58.79 49.88C58.79 51.19 59.86 52.26 61.17 52.26C62.48 52.26 63.55 51.19 63.55 49.88C63.55 48.57 62.48 47.5 61.17 47.5C59.86 47.5 58.79 48.57 58.79 49.88ZM61.96 49.88C61.96 50.92 60.38 50.92 60.38 49.88C60.38 48.84 61.96 48.84 61.96 49.88Z"></path>
<path fill="#2A8FCF" d="M57.2099 43.54C57.2099 42.23 56.14 41.16 54.83 41.16C53.52 41.16 52.45 42.23 52.45 43.54C52.45 44.85 53.52 45.92 54.83 45.92C56.14 45.92 57.2099 44.85 57.2099 43.54ZM54.04 43.54C54.04 42.5 55.6199 42.5 55.6199 43.54C55.6199 44.58 54.04 44.59 54.04 43.54Z"></path>
<path fill="#333333" d="M23.73 43.93L16.25 40.1L17.74 37.18C18.08 36.53 18.47 36.02 18.91 35.66C19.35 35.3 19.83 35.1 20.35 35.05C20.87 35 21.4 35.12 21.94 35.39C22.48 35.67 22.88 36.03 23.14 36.48C23.4 36.93 23.52 37.44 23.49 38.01C23.46 38.58 23.28 39.19 22.95 39.85L21.76 42.18L21.5 41.44L24.27 42.86L23.72 43.93H23.73ZM21.62 41.5L20.84 41.71L22.02 39.41C22.37 38.73 22.49 38.13 22.38 37.63C22.27 37.13 21.95 36.74 21.41 36.47C20.87 36.2 20.37 36.16 19.9 36.36C19.43 36.56 19.02 37.01 18.67 37.69L17.49 39.99L17.2 39.24L21.62 41.5Z"></path>
<path fill="#333333" d="M27.63 36.81L21.17 31.44L23.26 28.92C23.73 28.35 24.22 27.95 24.73 27.69C25.24 27.44 25.75 27.35 26.27 27.41C26.79 27.48 27.28 27.7 27.75 28.09C28.22 28.48 28.53 28.92 28.69 29.41C28.85 29.9 28.85 30.43 28.69 30.97C28.53 31.51 28.22 32.07 27.75 32.64L26.08 34.65L26 33.88L28.39 35.87L27.62 36.79L27.63 36.81ZM26.1 33.97L25.3 34.01L26.95 32.03C27.44 31.44 27.69 30.89 27.68 30.37C27.67 29.85 27.45 29.4 26.98 29.02C26.51 28.64 26.04 28.49 25.53 28.59C25.02 28.69 24.53 29.03 24.04 29.62L22.39 31.6L22.27 30.8L26.09 33.98L26.1 33.97ZM31.22 32.49L27.51 32.18L28.33 31.19L32.05 31.48L31.21 32.49H31.22Z"></path>
<path fill="#333333" d="M33.27 30.6L27.74 24.28L28.64 23.49L34.17 29.81L33.27 30.6Z"></path>
<path fill="#333333" d="M39.06 26.43C38.52 26.77 37.96 26.99 37.39 27.1C36.82 27.21 36.26 27.2 35.72 27.08C35.18 26.96 34.67 26.74 34.21 26.42C33.74 26.1 33.35 25.67 33.01 25.14C32.68 24.61 32.47 24.07 32.38 23.51C32.29 22.95 32.32 22.4 32.45 21.86C32.58 21.32 32.82 20.82 33.17 20.35C33.52 19.88 33.96 19.48 34.5 19.14C35.05 18.8 35.61 18.57 36.2 18.47C36.78 18.37 37.35 18.39 37.9 18.56L37.64 19.61C37.19 19.5 36.75 19.47 36.33 19.55C35.9 19.62 35.5 19.78 35.11 20.02C34.71 20.27 34.38 20.57 34.12 20.92C33.86 21.27 33.68 21.65 33.59 22.05C33.49 22.45 33.48 22.86 33.55 23.29C33.62 23.71 33.78 24.12 34.03 24.51C34.28 24.9 34.57 25.22 34.92 25.47C35.27 25.72 35.65 25.89 36.05 25.97C36.45 26.06 36.87 26.06 37.3 25.98C37.73 25.9 38.14 25.74 38.54 25.49C38.93 25.25 39.25 24.95 39.5 24.6C39.75 24.25 39.92 23.84 40.01 23.38L41.07 23.61C40.97 24.18 40.75 24.71 40.41 25.19C40.06 25.67 39.61 26.09 39.06 26.43Z"></path>
<path fill="#333333" d="M43.73 22.79L48.34 21.14L48.69 22.12L42.95 24.18L40.12 16.27L45.7 14.27L46.05 15.25L41.6 16.84L43.73 22.78V22.79ZM42.37 19.32L46.44 17.86L46.78 18.82L42.71 20.28L42.37 19.32Z"></path>
<path fill="#333333" d="M52.66 21.58C52.03 21.67 51.41 21.66 50.8 21.55C50.19 21.44 49.7 21.25 49.33 20.99L49.64 20C50 20.23 50.43 20.4 50.95 20.51C51.47 20.62 51.99 20.64 52.52 20.56C53 20.49 53.39 20.38 53.67 20.22C53.95 20.07 54.15 19.88 54.27 19.67C54.38 19.46 54.42 19.23 54.39 18.98C54.35 18.7 54.22 18.48 54.01 18.33C53.8 18.18 53.54 18.08 53.22 18.01C52.91 17.95 52.57 17.9 52.2 17.87C51.83 17.84 51.46 17.8 51.08 17.75C50.7 17.7 50.36 17.61 50.04 17.48C49.72 17.36 49.45 17.17 49.22 16.91C49 16.66 48.85 16.31 48.79 15.86C48.73 15.43 48.79 15.02 48.96 14.63C49.13 14.24 49.44 13.9 49.88 13.61C50.32 13.32 50.9 13.13 51.63 13.02C52.11 12.95 52.6 12.94 53.09 13C53.58 13.06 54.02 13.18 54.4 13.37L54.15 14.38C53.76 14.19 53.36 14.08 52.95 14.03C52.54 13.98 52.15 13.98 51.78 14.03C51.31 14.1 50.94 14.21 50.65 14.38C50.37 14.54 50.17 14.73 50.06 14.95C49.95 15.17 49.91 15.4 49.95 15.65C49.99 15.94 50.12 16.16 50.33 16.31C50.54 16.46 50.8 16.56 51.11 16.62C51.42 16.68 51.76 16.73 52.13 16.76C52.5 16.79 52.87 16.83 53.25 16.88C53.63 16.93 53.97 17.02 54.29 17.14C54.61 17.26 54.88 17.45 55.1 17.7C55.32 17.95 55.47 18.29 55.53 18.73C55.59 19.15 55.53 19.56 55.35 19.95C55.17 20.34 54.86 20.68 54.41 20.97C53.96 21.26 53.37 21.45 52.65 21.56L52.66 21.58Z"></path>
<path fill="#333333" d="M62.5201 21.46C61.9601 21.38 61.4701 21.22 61.0601 20.98C60.6501 20.74 60.3401 20.44 60.1301 20.07C59.9201 19.71 59.8501 19.32 59.9101 18.89C59.9601 18.52 60.0901 18.19 60.3001 17.9C60.5101 17.61 60.8201 17.35 61.2201 17.11C61.6201 16.87 62.1501 16.64 62.7801 16.41C63.3001 16.22 63.7101 16.06 64.0101 15.9C64.3101 15.75 64.5301 15.6 64.6701 15.44C64.8101 15.28 64.8901 15.11 64.9201 14.91C64.9601 14.64 64.8901 14.41 64.7301 14.21C64.5601 14.01 64.3001 13.89 63.9501 13.84C63.5801 13.79 63.2701 13.84 63.0401 14C62.8001 14.16 62.6601 14.39 62.6201 14.69C62.6001 14.84 62.6001 14.99 62.6401 15.13C62.6701 15.28 62.7501 15.44 62.8601 15.63C62.9801 15.82 63.1501 16.06 63.3701 16.36L67.1601 21.35L66.4101 22.02L62.3901 16.72C62.1501 16.4 61.9701 16.13 61.8401 15.89C61.7101 15.65 61.6301 15.42 61.5801 15.21C61.5401 14.99 61.5301 14.78 61.5601 14.56C61.6101 14.19 61.7501 13.87 61.9801 13.62C62.2001 13.37 62.5001 13.18 62.8601 13.08C63.2201 12.98 63.6201 12.95 64.0701 13.01C64.4901 13.07 64.85 13.19 65.13 13.37C65.42 13.55 65.63 13.78 65.77 14.06C65.9 14.34 65.9501 14.66 65.8901 15.03C65.8501 15.35 65.7301 15.63 65.5401 15.88C65.3501 16.13 65.0601 16.35 64.6901 16.56C64.3201 16.77 63.8201 16.98 63.2001 17.19C62.6901 17.37 62.2901 17.54 61.9901 17.72C61.6901 17.89 61.4701 18.07 61.3301 18.26C61.1901 18.45 61.1001 18.67 61.0601 18.91C61.0201 19.17 61.0601 19.41 61.1901 19.64C61.3201 19.86 61.5101 20.05 61.7801 20.2C62.0501 20.35 62.3601 20.45 62.7401 20.5C63.2701 20.57 63.7701 20.53 64.2301 20.36C64.6901 20.19 65.1 19.9 65.45 19.48C65.8 19.06 66.1001 18.52 66.3301 17.86L67.2 18.29C66.93 19.07 66.5601 19.71 66.1001 20.21C65.6401 20.71 65.1101 21.07 64.5001 21.28C63.9001 21.49 63.2401 21.55 62.5401 21.45L62.5201 21.46Z"></path>
<path fill="#333333" d="M70.9401 23.27L74.5601 15.69L77.9601 17.31C78.8301 17.73 79.4201 18.22 79.7201 18.8C80.0201 19.37 80.0301 19.96 79.7401 20.57C79.5401 20.98 79.2801 21.28 78.9701 21.48C78.6501 21.67 78.3001 21.77 77.9201 21.77C77.5401 21.77 77.1701 21.69 76.8001 21.52L77.1501 21.29C77.5801 21.5 77.9301 21.76 78.1901 22.07C78.4501 22.38 78.6101 22.73 78.6601 23.11C78.7101 23.5 78.6401 23.9 78.4301 24.34C78.1201 24.99 77.6401 25.38 76.9801 25.5C76.3201 25.62 75.5101 25.46 74.5501 25L70.9301 23.27H70.9401ZM72.4401 22.91L74.9301 24.1C75.5301 24.39 76.0401 24.5 76.4501 24.45C76.8601 24.4 77.1701 24.16 77.3801 23.72C77.5901 23.28 77.5901 22.88 77.3601 22.53C77.1301 22.18 76.7301 21.86 76.1301 21.57L73.5401 20.33L73.9601 19.45L76.2801 20.56C76.8301 20.82 77.3001 20.92 77.7001 20.87C78.1001 20.81 78.4 20.58 78.59 20.18C78.78 19.78 78.7801 19.4 78.5701 19.05C78.3601 18.7 77.9901 18.4 77.4401 18.14L75.2201 17.08L72.4301 22.9L72.4401 22.91Z"></path>
<path fill="#333333" d="M81.2601 29.47C80.4101 28.77 79.9301 27.98 79.8401 27.09C79.7501 26.2 80.0901 25.29 80.8601 24.34L83.8801 20.64L84.8101 21.4L81.8201 25.06C81.2301 25.79 80.9501 26.45 81.0001 27.04C81.0501 27.63 81.3601 28.17 81.9401 28.65C82.5301 29.13 83.1201 29.33 83.7101 29.26C84.3001 29.19 84.8901 28.79 85.4901 28.06L88.4801 24.4L89.3801 25.14L86.3601 28.84C85.5901 29.78 84.7601 30.3 83.8801 30.39C82.9901 30.48 82.1201 30.18 81.2601 29.47Z"></path>
<path fill="#333333" d="M85.42 33.2L91.99 27.96L92.74 28.9L86.99 33.49L89.83 37.05L89.01 37.7L85.43 33.21L85.42 33.2Z"></path>
<path fill="#333333" d="M89.5 38.53L96.98 34.71L97.53 35.78L90.05 39.6L89.5 38.53ZM91.79 38.55L93.07 37.83L99.61 39.84L100.23 41.06L95.09 39.55L94.12 39.29L91.79 38.55ZM92.21 43.83L94.21 38.94L95.37 39.25L92.85 45.08L92.21 43.83Z"></path>
</g>
<defs>
<clipPath id="clip0_2052_2">
<rect fill="white" height="116" width="116"></rect>
</clipPath>
</defs>
</svg>
