<svg xmlns="http://www.w3.org/2000/svg" fill="none" viewBox="0 0 116 116" height="116" width="116">
<g clip-path="url(#clip0_2038_30)">
<path fill="#CCE7F8" d="M57.9996 0L63.6896 4.16338L70.1251 1.2677L74.8204 6.5164L81.7207 5.01422L85.2154 11.119L92.2789 11.0773L94.4218 17.7709L101.339 19.1904L102.036 26.181L108.506 29L107.725 35.9824L113.465 40.0773L111.242 46.7455L116 51.9377L112.431 58L116 64.0631L111.242 69.2552L113.465 75.9235L107.725 80.0184L108.506 87L102.036 89.819L101.339 96.8096L94.4218 98.2291L92.2789 104.923L85.2154 104.881L81.7207 110.986L74.8204 109.484L70.1251 114.733L63.6896 111.837L57.9996 116L52.3104 111.837L45.8749 114.733L41.1796 109.484L34.2793 110.986L30.7838 104.881L23.7203 104.923L21.5782 98.2291L14.6599 96.8096L13.9638 89.819L7.49387 87L8.27454 80.0184L2.53513 75.9235L4.75814 69.2552L0 64.0631L3.56879 58L0 51.9377L4.75814 46.7455L2.53513 40.0773L8.27454 35.9824L7.49387 29L13.9638 26.181L14.6599 19.1904L21.5782 17.7709L23.7203 11.0773L30.7838 11.119L34.2793 5.01422L41.1796 6.5164L45.8749 1.2677L52.3104 4.16338L57.9996 0Z"></path>
<path fill="#2A8FCF" d="M57.9996 110.174C86.9729 110.174 110.46 86.8147 110.46 58C110.46 29.1853 86.9729 5.82635 57.9996 5.82635C29.0263 5.82635 5.53882 29.1853 5.53882 58C5.53882 86.8147 29.0263 110.174 57.9996 110.174Z"></path>
<path fill="#CCE7F8" d="M57.9996 108.232C85.8944 108.232 108.508 85.7421 108.508 58C108.508 30.2579 85.8944 7.76846 57.9996 7.76846C30.1048 7.76846 7.49158 30.2579 7.49158 58C7.49158 85.7421 30.1048 108.232 57.9996 108.232Z"></path>
<path fill="#2A8FCF" d="M16.3709 50.8792L17.9787 55.7996H23.1807L18.9719 58.8404L20.5797 63.7616L16.3709 60.72L12.1622 63.7616L13.7699 58.8404L9.56116 55.7996H14.7632L16.3709 50.8792Z"></path>
<path fill="#2A8FCF" d="M99.6088 51.5588L101.217 56.4799H106.419L102.21 59.5208L103.818 64.4412L99.6088 61.4004L95.4001 64.4412L97.0078 59.5208L92.7991 56.4799H98.0011L99.6088 51.5588Z"></path>
<path fill="#2A8FCF" d="M57.9996 89.1848C75.3173 89.1848 89.356 75.2229 89.356 58C89.356 40.7771 75.3173 26.8152 57.9996 26.8152C40.6819 26.8152 26.6432 40.7771 26.6432 58C26.6432 75.2229 40.6819 89.1848 57.9996 89.1848Z"></path>
<path fill="#F7F7FD" d="M57.9996 87.2427C74.2387 87.2427 87.4032 74.1503 87.4032 58C87.4032 41.8497 74.2387 28.7573 57.9996 28.7573C41.7604 28.7573 28.5959 41.8497 28.5959 58C28.5959 74.1503 41.7604 87.2427 57.9996 87.2427Z"></path>
<path fill="#333333" d="M33.4484 30.1888L28.8055 24.7711L26.6731 26.5792L26.0144 25.8103L31.1595 21.4489L31.8182 22.2178L29.6857 24.026L34.3286 29.4437L33.4491 30.1895L33.4484 30.1888Z"></path>
<path fill="#333333" d="M38.0576 26.6083L34.2635 19.4085L37.0868 17.9369C37.7208 17.6063 38.3151 17.424 38.8675 17.389C39.4206 17.3547 39.9168 17.4627 40.3569 17.7135C40.7971 17.9651 41.1541 18.3515 41.4288 18.8726C41.7035 19.3936 41.8187 19.9043 41.7746 20.4038C41.7304 20.9033 41.5366 21.3692 41.193 21.8017C40.8494 22.2342 40.3607 22.6161 39.7267 22.9466L37.4723 24.122L37.6886 23.4066L39.0927 26.0708L38.0583 26.6098L38.0576 26.6083ZM37.7425 23.5079L37.0112 23.2466L39.235 22.0876C39.8966 21.7429 40.3233 21.3387 40.5149 20.8765C40.7065 20.4142 40.6661 19.9259 40.3951 19.4115C40.1242 18.8971 39.7439 18.5889 39.2544 18.4855C38.7649 18.3827 38.1893 18.5033 37.5277 18.848L35.3039 20.007L35.4985 19.25L37.7425 23.5079ZM42.8973 24.0855L39.6796 22.433L40.7866 21.8561L44.0253 23.4982L42.8973 24.0855Z"></path>
<path fill="#333333" d="M49.5431 22.0593C48.4968 22.3012 47.6046 22.194 46.8665 21.7362C46.1285 21.2792 45.6256 20.4775 45.3576 19.3311L44.3052 14.8298L45.4429 14.567L46.4848 19.0237C46.6914 19.9058 47.0372 20.5057 47.523 20.8221C48.0087 21.1392 48.6075 21.2152 49.3208 21.0506C50.0409 20.8839 50.5491 20.5519 50.844 20.0546C51.1389 19.5574 51.1838 18.8673 50.9772 17.9852L49.9354 13.5286L51.0386 13.2732L52.091 17.7746C52.359 18.9209 52.2646 19.8611 51.8088 20.5943C51.353 21.3276 50.5978 21.8159 49.5439 22.06L49.5431 22.0593Z"></path>
<path fill="#333333" d="M58.26 21.0886C57.6373 21.0849 57.0422 20.9866 56.4756 20.7931C55.9083 20.6003 55.4622 20.3517 55.1373 20.0472L55.5752 19.1443C55.8843 19.4174 56.2803 19.6445 56.7623 19.8254C57.2436 20.0063 57.7451 20.0986 58.2668 20.1015C58.7413 20.1045 59.1268 20.0532 59.4239 19.946C59.7203 19.8395 59.9396 19.6921 60.0804 19.5031C60.2218 19.3147 60.2929 19.1003 60.2944 18.8599C60.2959 18.5815 60.2061 18.3559 60.0242 18.1847C59.8423 18.0135 59.6058 17.8743 59.3147 17.7679C59.0235 17.6614 58.7031 17.5684 58.3528 17.4887C58.0033 17.4091 57.6515 17.316 57.2975 17.2096C56.9442 17.1031 56.6216 16.9677 56.3312 16.8031C56.04 16.6386 55.8057 16.419 55.6291 16.1429C55.4517 15.8667 55.3641 15.5124 55.3671 15.0784C55.3701 14.66 55.4831 14.2759 55.7069 13.9253C55.9307 13.5747 56.275 13.2941 56.7399 13.0842C57.2039 12.8742 57.7945 12.7715 58.5108 12.776C58.9853 12.779 59.4561 12.8437 59.9224 12.9703C60.3887 13.0968 60.7922 13.2777 61.1335 13.5122L60.7428 14.439C60.394 14.2045 60.025 14.034 59.6365 13.9268C59.248 13.8196 58.8708 13.7653 58.5048 13.7631C58.0452 13.7601 57.6672 13.8159 57.3708 13.9305C57.0744 14.0452 56.8574 14.1985 56.7196 14.3913C56.5819 14.5841 56.5131 14.8007 56.5116 15.0404C56.5101 15.327 56.5999 15.5555 56.7818 15.7275C56.9637 15.8987 57.2002 16.0357 57.4913 16.1384C57.7825 16.2411 58.1029 16.3334 58.4531 16.4176C58.8034 16.5017 59.1545 16.594 59.5078 16.6967C59.8611 16.7994 60.1837 16.9334 60.4748 17.0979C60.766 17.2624 60.9995 17.4805 61.1769 17.7522C61.3543 18.0247 61.4419 18.3731 61.4389 18.7989C61.4359 19.209 61.3206 19.5901 61.0931 19.9408C60.8648 20.2914 60.5152 20.572 60.0429 20.7819C59.5706 20.9918 58.9763 21.0946 58.2608 21.0901L58.26 21.0886Z"></path>
<path fill="#333333" d="M65.236 21.6908L66.7352 14.73L63.995 14.1464L64.2075 13.1586L70.8182 14.567L70.6056 15.5548L67.8654 14.9712L66.3662 21.932L65.236 21.6908Z"></path>
<path fill="#333333" d="M72.3848 22.7434L76.723 24.7019L76.3031 25.622L70.902 23.1841L74.2799 15.7818L79.5321 18.1527L79.1122 19.0728L74.9229 17.182L72.3848 22.7434ZM73.7897 19.4115L77.6174 21.1392L77.2073 22.0377L73.3795 20.31L73.7897 19.4115Z"></path>
<path fill="#333333" d="M78.4355 26.874L83.5417 20.5266L86.231 22.6667C86.9114 23.2086 87.4047 23.819 87.7108 24.4987C88.0162 25.1783 88.1217 25.8713 88.0259 26.5792C87.9301 27.2864 87.63 27.9549 87.124 28.5831C86.618 29.2122 86.029 29.6499 85.3561 29.8977C84.6832 30.1456 83.9796 30.1955 83.2461 30.0481C82.5126 29.9007 81.8052 29.5561 81.1241 29.0141L78.4355 26.874ZM79.9819 26.8107L81.7049 28.1819C82.2341 28.6025 82.7715 28.8668 83.3179 28.9747C83.8643 29.0819 84.3883 29.0409 84.8905 28.8504C85.3927 28.6598 85.8336 28.3293 86.2123 27.8574C86.5963 27.3802 86.8254 26.8785 86.9002 26.3522C86.9743 25.8259 86.8987 25.3101 86.6734 24.8031C86.4481 24.2962 86.0709 23.8332 85.5417 23.4119L83.8187 22.0407L79.9819 26.8107Z"></path>
<path fill="#333333" d="M19.0386 81.132L25.7398 76.3686L27.888 79.3581C28.4396 80.1263 28.7091 80.826 28.6963 81.4588C28.6836 82.0915 28.4089 82.5984 27.873 82.9796C27.5092 83.2379 27.1447 83.3748 26.7795 83.3905C26.4142 83.4053 26.0661 83.3242 25.7361 83.1463C25.406 82.9684 25.1268 82.7213 24.8985 82.4041L25.3087 82.3714C25.5826 82.7525 25.757 83.1359 25.8326 83.5237C25.9082 83.9108 25.879 84.2822 25.7436 84.6373C25.6081 84.9924 25.3491 85.3058 24.9659 85.5782C24.3918 85.9869 23.7922 86.0889 23.1688 85.8849C22.5453 85.681 21.9293 85.1569 21.323 84.3128L19.0378 81.1327L19.0386 81.132ZM20.4989 81.5332L22.0722 83.7232C22.451 84.2502 22.8297 84.5897 23.2092 84.7415C23.5887 84.8934 23.9696 84.8338 24.3529 84.5614C24.7421 84.2845 24.9255 83.9428 24.9037 83.5371C24.8813 83.1307 24.6814 82.6647 24.3027 82.1377L22.6673 79.862L23.4427 79.3104L24.9067 81.3479C25.2533 81.8302 25.6118 82.1414 25.9823 82.2806C26.3521 82.4205 26.7166 82.3632 27.0736 82.1086C27.4306 81.8548 27.6035 81.531 27.5901 81.1372C27.5773 80.7434 27.397 80.3057 27.0504 79.8233L25.6477 77.8715L20.4974 81.5325L20.4989 81.5332Z"></path>
<path fill="#333333" d="M28.6013 92.1452C27.772 91.453 27.3191 90.6728 27.2435 89.8049C27.1672 88.9369 27.5122 88.0481 28.2787 87.14L31.2898 83.5721L32.191 84.3247L29.2105 87.8561C28.6207 88.555 28.3438 89.1952 28.3812 89.7766C28.4186 90.3572 28.7195 90.8835 29.2839 91.3554C29.8542 91.8319 30.4306 92.0381 31.0129 91.9733C31.5952 91.9085 32.1805 91.5274 32.7704 90.8277L35.7508 87.2963L36.6251 88.0258L33.6147 91.5936C32.8482 92.5018 32.0294 92.9953 31.1596 93.0735C30.2891 93.1517 29.4366 92.842 28.6013 92.1452Z"></path>
<path fill="#333333" d="M37.408 97.9083C36.8474 97.6277 36.3541 97.2748 35.929 96.8483C35.5038 96.4218 35.2127 95.999 35.0555 95.5799L35.8564 94.959C36.0136 95.3432 36.2688 95.7243 36.6221 96.1017C36.9754 96.4791 37.387 96.785 37.8571 97.0203C38.2845 97.2339 38.6557 97.359 38.9716 97.3939C39.2874 97.4297 39.5509 97.3939 39.7635 97.2853C39.9761 97.1773 40.137 97.0158 40.2463 96.7992C40.3735 96.5483 40.393 96.3049 40.3054 96.0689C40.2178 95.8337 40.0674 95.6029 39.8518 95.3774C39.6362 95.1518 39.3885 94.9255 39.1086 94.6985C38.8286 94.4715 38.5524 94.2303 38.2815 93.9772C38.0098 93.7234 37.78 93.4584 37.5914 93.1799C37.4028 92.9023 37.2897 92.5993 37.2538 92.271C37.2171 91.9428 37.298 91.584 37.4956 91.1932C37.6857 90.8165 37.9611 90.5202 38.3211 90.3029C38.6812 90.0855 39.1183 89.985 39.6318 90.0021C40.146 90.0185 40.7253 90.1882 41.3697 90.5106C41.7971 90.7242 42.1931 90.9922 42.5576 91.3138C42.9221 91.6353 43.205 91.9778 43.4079 92.341L42.6384 93.0043C42.4289 92.6373 42.1721 92.3194 41.8697 92.05C41.5666 91.7805 41.2507 91.5639 40.9214 91.3994C40.5075 91.1924 40.1415 91.0748 39.8226 91.0465C39.503 91.0175 39.238 91.0599 39.0277 91.1731C38.8166 91.2862 38.6572 91.4507 38.5479 91.6666C38.4177 91.9249 38.396 92.1713 38.4836 92.4073C38.5704 92.6432 38.7231 92.8718 38.9401 93.0936C39.1572 93.3154 39.405 93.5417 39.6834 93.7725C39.9618 94.0032 40.2373 94.2437 40.5105 94.4938C40.7837 94.7439 41.0142 95.0074 41.2036 95.2851C41.3922 95.5627 41.506 95.8642 41.5434 96.1888C41.5816 96.5133 41.503 96.8677 41.3099 97.251C41.1227 97.6202 40.848 97.9128 40.4843 98.1287C40.1205 98.3445 39.6782 98.4421 39.158 98.422C38.637 98.4019 38.0539 98.2306 37.4095 97.9083H37.408Z"></path>
<path fill="#333333" d="M43.7065 100.405L46.193 92.5956L47.315 92.9492L44.8285 100.759L43.7065 100.405Z"></path>
<path fill="#333333" d="M49.1727 101.975L50.1375 93.8395L51.0956 93.9519L55.7138 101.269L55.2115 101.21L56.0042 94.528L57.1726 94.665L56.2078 102.8L55.2497 102.688L50.6315 95.3707L51.1338 95.4295L50.3411 102.112L49.1727 101.975Z"></path>
<path fill="#333333" d="M62.0378 101.522L66.8011 100.922L66.9291 101.933L60.9988 102.678L59.9659 94.5511L65.733 93.8261L65.8618 94.8362L61.2623 95.4146L62.0378 101.522ZM61.4741 97.924L65.6769 97.3954L65.8026 98.3825L61.5999 98.911L61.4741 97.924Z"></path>
<path fill="#333333" d="M73.1648 100.206C72.5727 100.413 71.9747 100.522 71.3714 100.531C70.7674 100.54 70.2591 100.456 69.8467 100.278L69.9523 99.2728C70.3392 99.4269 70.7921 99.5073 71.3115 99.5162C71.8302 99.5244 72.337 99.4418 72.8332 99.2683C73.2845 99.1098 73.6326 98.9304 73.8773 98.7286C74.1221 98.5269 74.2785 98.3133 74.3481 98.0862C74.417 97.8592 74.4118 97.6314 74.3309 97.4036C74.2374 97.1386 74.0742 96.9562 73.8429 96.855C73.6116 96.7545 73.3399 96.7024 73.0271 96.7009C72.7142 96.6987 72.3781 96.7195 72.0196 96.7627C71.6603 96.8059 71.2951 96.8371 70.9231 96.8558C70.5511 96.8744 70.1993 96.8558 69.8669 96.7977C69.5346 96.7404 69.2367 96.6116 68.9747 96.4099C68.712 96.2089 68.5077 95.9014 68.3617 95.4898C68.221 95.0923 68.1963 94.6896 68.2884 94.2809C68.3804 93.8722 68.611 93.4896 68.9792 93.1331C69.3475 92.7765 69.8722 92.4787 70.5526 92.2398C71.0039 92.082 71.4725 91.9837 71.9582 91.945C72.444 91.907 72.8886 91.9413 73.292 92.0477L73.2389 93.0594C72.828 92.9551 72.4193 92.9187 72.0144 92.9492C71.6094 92.9797 71.2329 93.0556 70.8849 93.1777C70.4485 93.3311 70.1087 93.512 69.8669 93.7211C69.6252 93.9303 69.4717 94.1491 69.4074 94.3784C69.343 94.6077 69.3512 94.8362 69.4321 95.0647C69.5286 95.3372 69.6925 95.524 69.9238 95.6245C70.1551 95.7258 70.4268 95.7749 70.7382 95.7734C71.0496 95.7719 71.3856 95.7511 71.7456 95.7116C72.1057 95.6722 72.4709 95.6409 72.8422 95.6186C73.2127 95.5962 73.5645 95.6134 73.8961 95.6707C74.2276 95.728 74.5248 95.8553 74.7868 96.0533C75.048 96.2513 75.2508 96.5528 75.3945 96.957C75.533 97.3471 75.554 97.7468 75.4582 98.157C75.3623 98.5671 75.1266 98.952 74.7508 99.3108C74.3751 99.6703 73.8467 99.9688 73.1663 100.208L73.1648 100.206Z"></path>
<path fill="#333333" d="M81.6788 96.2059C81.1422 96.529 80.5786 96.7567 79.9895 96.8878C79.3997 97.0195 78.8855 97.0396 78.4446 96.9488L78.3421 95.9439C78.753 96.0161 79.2126 96.0034 79.7223 95.9067C80.232 95.8099 80.711 95.626 81.1609 95.3551C81.5703 95.1087 81.8742 94.8623 82.0725 94.6151C82.2709 94.368 82.3802 94.1268 82.4019 93.8901C82.4236 93.6541 82.3705 93.4323 82.2447 93.2254C82.0988 92.9849 81.9019 92.839 81.6549 92.7869C81.4079 92.7348 81.1309 92.74 80.8248 92.8011C80.5187 92.8621 80.1938 92.9507 79.851 93.0653C79.5082 93.1807 79.1572 93.2849 78.7972 93.3787C78.4371 93.4725 78.0883 93.5246 77.7515 93.5365C77.4147 93.5477 77.0966 93.4814 76.798 93.3378C76.4993 93.1941 76.2366 92.935 76.009 92.5614C75.7897 92.2011 75.6834 91.811 75.6894 91.3927C75.6954 90.9743 75.8429 90.5522 76.1303 90.1287C76.4177 89.7051 76.8706 89.3069 77.4881 88.9354C77.8975 88.689 78.3361 88.4977 78.8039 88.3622C79.2717 88.2268 79.7141 88.1702 80.131 88.1925L80.2859 89.1937C79.8623 89.1751 79.4551 89.222 79.0644 89.3337C78.6737 89.4453 78.3211 89.5964 78.006 89.7863C77.6101 90.0245 77.3152 90.2709 77.1205 90.524C76.9267 90.7778 76.8212 91.0234 76.8054 91.2609C76.7897 91.4984 76.8444 91.7209 76.9701 91.9279C77.1205 92.175 77.3189 92.3246 77.5659 92.376C77.8129 92.4281 78.0891 92.4214 78.393 92.3566C78.6976 92.2919 79.0217 92.2041 79.3668 92.0924C79.7111 91.9807 80.0629 91.8765 80.4206 91.779C80.7784 91.6822 81.1265 91.6279 81.4633 91.6167C81.8001 91.6056 82.1167 91.6703 82.4139 91.811C82.7103 91.9517 82.9707 92.2055 83.1938 92.5725C83.4093 92.9261 83.5119 93.3139 83.5022 93.7345C83.4924 94.1558 83.3405 94.5801 83.0463 95.0074C82.7522 95.4355 82.2963 95.8344 81.6788 96.2059Z"></path>
<path fill="#333333" d="M87.5709 90.5604L91.0582 87.2784L91.7617 88.0176L87.4205 92.1036L81.7589 86.1536L85.9812 82.1801L86.6847 82.9193L83.3173 86.0889L87.5717 90.5597L87.5709 90.5604ZM84.9782 87.9893L88.0552 85.0936L88.7423 85.8164L85.6653 88.7121L84.9782 87.9893Z"></path>
<path fill="#333333" d="M95.7654 82.9475C95.4121 83.4634 94.9952 83.9033 94.5139 84.2666C94.0326 84.6299 93.5731 84.8614 93.1352 84.9611L92.6217 84.0894C93.0252 83.9852 93.4383 83.7835 93.8612 83.4842C94.2841 83.1857 94.6434 82.8195 94.9391 82.3878C95.2078 81.9947 95.3814 81.6449 95.4585 81.3382C95.5356 81.0315 95.5341 80.7665 95.4548 80.5432C95.3754 80.3198 95.2355 80.1397 95.0341 80.0035C94.8006 79.8457 94.5603 79.7943 94.3141 79.8486C94.0678 79.9037 93.8178 80.0221 93.5648 80.2052C93.3119 80.3876 93.0536 80.602 92.7901 80.8484C92.5267 81.0948 92.2505 81.3352 91.9623 81.5689C91.6742 81.8034 91.3793 81.9947 91.0769 82.1443C90.7752 82.294 90.4586 82.3654 90.127 82.358C89.7954 82.3505 89.4481 82.224 89.0844 81.9783C88.7341 81.7416 88.4744 81.4312 88.3052 81.0479C88.1361 80.6645 88.0934 80.2201 88.178 79.7161C88.2618 79.2114 88.5073 78.6628 88.9137 78.0695C89.1832 77.6765 89.502 77.3214 89.8703 77.0043C90.2393 76.688 90.6173 76.4535 91.0065 76.3009L91.5664 77.1472C91.1734 77.3058 90.8224 77.5165 90.514 77.78C90.2056 78.0435 89.9481 78.3264 89.7408 78.6293C89.4803 79.0097 89.3149 79.3559 89.2446 79.6663C89.1742 79.9767 89.1817 80.2439 89.2663 80.4665C89.3508 80.6891 89.4946 80.8685 89.6952 81.0047C89.9354 81.167 90.1787 81.2206 90.4249 81.1655C90.6712 81.1104 90.9197 80.9905 91.1697 80.8059C91.4197 80.6213 91.6779 80.4069 91.9444 80.1628C92.2108 79.9186 92.487 79.6789 92.7722 79.4422C93.0574 79.2055 93.3508 79.0127 93.6524 78.8631C93.9541 78.7134 94.2692 78.6412 94.5977 78.6465C94.9263 78.6517 95.2691 78.7752 95.6254 79.0164C95.969 79.2487 96.2242 79.5591 96.3919 79.9454C96.5588 80.3325 96.5985 80.7814 96.5094 81.292C96.4211 81.8034 96.1733 82.355 95.7676 82.9483L95.7654 82.9475Z"></path>
<path fill="#2A8FCF" d="M71.9672 49.0242C69.4913 47.4596 69.2132 47.4243 69.3926 46.9735C70.3525 44.5515 71.0522 43.5084 70.1462 42.2797C69.2132 41.0069 67.8856 41.387 65.32 41.5195C64.8356 41.5461 64.8894 41.2809 64.118 38.47C63.6963 36.9319 61.8035 36.322 60.5477 37.3208C58.2063 39.1771 58.0987 39.4069 57.7219 39.1152C55.6497 37.4799 54.8424 36.4634 53.3533 36.9496C51.8462 37.4357 51.8014 38.7617 51.1375 41.2013C51.0119 41.6521 50.8505 41.5372 47.7915 41.3781C46.132 41.2897 45.0017 42.9162 45.5847 44.3835C46.6522 47.0707 46.8496 47.2475 46.437 47.5127C44.1943 48.927 43.0012 49.3601 43.0012 50.8893C43.0012 52.4185 44.284 52.9047 46.437 54.266C46.8406 54.5223 46.6612 54.6726 45.5847 57.3951C44.9837 58.9066 46.1858 60.4977 47.7915 60.4005L49.0294 60.3386C49.0294 79.856 48.868 78.6008 49.4062 78.9897C50.1418 79.5289 50.0521 79.3168 58 73.2265L65.5263 78.9897C65.9479 79.3168 66.5131 79.1754 66.7822 78.8306C67.0513 78.4947 66.9706 79.0605 66.9706 60.3386C68.2175 60.4005 69.3119 60.6215 70.1462 59.49C71.0881 58.2083 70.2987 57.0769 69.3926 54.7963C69.2132 54.3455 69.4824 54.319 71.9672 52.7456C73.3487 51.8705 73.3397 49.8905 71.9672 49.0242ZM57.4438 71.3967L50.8146 76.4705V60.2591C51.7924 60.4977 51.0658 64.9263 54.044 64.9263C55.0936 64.9263 55.5062 64.3871 57.704 62.6457C58.0718 62.354 58.1346 62.5485 60.5297 64.4401C61.7856 65.439 63.6784 64.8379 64.1 63.291C65.4635 58.279 65.1585 57.7133 65.1585 76.4794L58.5293 71.4055C58.2063 71.158 57.7488 71.158 57.4259 71.4055L57.4438 71.3967ZM70.9984 51.2517L68.5943 52.7633C67.6972 53.329 67.3294 54.4516 67.7152 55.4239C69.2222 59.2425 69.5631 58.6857 65.4097 58.4735C64.3691 58.4293 63.4003 59.1011 63.1222 60.1088L62.3777 62.8313C62.288 63.1407 61.9112 63.2556 61.66 63.0612L59.3994 61.2668C57.0222 59.384 54.8334 63.4236 53.9094 63.1319C52.9586 62.8225 53.6493 58.3144 50.5903 58.4735C46.41 58.6945 46.7778 59.2249 48.2849 55.4239C48.6706 54.4516 48.3028 53.329 47.4058 52.7633L45.0106 51.2517C44.7325 51.0749 44.7325 50.686 45.0106 50.5092L47.4147 48.9977C48.3118 48.432 48.6796 47.3094 48.2939 46.337C47.1905 43.5438 47.1277 43.588 47.325 43.3228C47.8902 42.5449 52.0884 44.578 52.8868 41.661L53.6314 38.9384C53.7121 38.6291 54.0978 38.5053 54.349 38.7086L56.6096 40.503C57.4349 41.1571 58.5921 41.1571 59.4174 40.503L61.678 38.7086C61.9291 38.5142 62.3059 38.6291 62.3956 38.9384L63.1402 41.661C63.4182 42.6598 64.3781 43.3405 65.4277 43.2963C68.5046 43.1372 68.5046 43.0576 68.7019 43.3228C69.2671 44.0918 66.0197 47.3624 68.6122 49.0065L71.0074 50.5181C71.2854 50.6948 71.2854 51.0838 71.0074 51.2606L70.9984 51.2517Z"></path>
<path fill="#2A8FCF" d="M58 42.0411C53.0572 42.0411 49.0294 46.0099 49.0294 50.8805C49.0294 55.751 53.0572 59.7199 58 59.7199C62.9428 59.7199 66.9706 55.751 66.9706 50.8805C66.9706 46.0099 62.9428 42.0411 58 42.0411ZM58 57.952C54.044 57.952 50.8236 54.7786 50.8236 50.8805C50.8236 46.9823 54.044 43.8089 58 43.8089C61.956 43.8089 65.1765 46.9823 65.1765 50.8805C65.1765 54.7786 61.956 57.952 58 57.952Z"></path>
<path fill="#2A8FCF" d="M60.8885 47.6806L56.7352 52.7986L55.255 51.3401C54.4118 50.5092 53.1469 51.7644 53.9902 52.5865C56.3763 54.9377 56.3225 55.0085 56.8159 55.0085C57.4349 55.0085 57.2196 55.035 62.2969 48.7855C63.0325 47.8751 61.6421 46.7701 60.8975 47.6806H60.8885Z"></path>
</g>
<defs>
<clipPath id="clip0_2038_30">
<rect fill="white" height="116" width="116"></rect>
</clipPath>
</defs>
</svg>
